<?xml version="1.0" standalone="no"?>
<!DOCTYPE svg PUBLIC "-//W3C//DTD SVG 20010904//EN"
 "http://www.w3.org/TR/2001/REC-SVG-20010904/DTD/svg10.dtd">
<svg version="1.0" xmlns="http://www.w3.org/2000/svg"
 width="200.000000pt" height="200.000000pt" viewBox="0 0 200.000000 200.000000"
 preserveAspectRatio="xMidYMid meet">

<g transform="translate(0.000000,200.000000) scale(0.100000,-0.100000)"
fill="#000000" stroke="none">
<path d="M1036 1203 c-3 -3 -6 -55 -6 -115 0 -89 3 -108 15 -108 12 0 15 19
15 109 0 100 -6 131 -24 114z"/>
<path d="M1096 1203 c-12 -12 -6 -33 9 -33 8 0 15 6 15 14 0 17 -14 28 -24 19z"/>
<path d="M359 1131 c-32 -33 -37 -67 -14 -110 17 -33 33 -41 84 -41 25 0 44 7
55 19 21 23 6 37 -23 21 -29 -15 -56 -12 -74 8 -22 24 -21 54 2 83 18 22 22
23 53 11 44 -15 48 -15 48 3 0 19 -31 35 -70 35 -22 0 -41 -9 -61 -29z"/>
<path d="M539 1131 c-32 -33 -37 -67 -14 -110 17 -33 33 -41 84 -41 53 0 86
37 85 93 -3 82 -95 117 -155 58z m101 -21 c24 -24 25 -48 4 -78 -18 -26 -56
-29 -78 -6 -24 23 -20 70 6 88 30 21 44 20 68 -4z"/>
<path d="M722 1143 c-5 -10 -8 -47 -6 -83 2 -84 2 -80 19 -80 11 0 15 12 15
49 0 63 7 80 36 92 13 4 24 15 24 24 0 17 -18 19 -40 5 -9 -5 -19 -5 -26 1 -9
7 -15 5 -22 -8z"/>
<path d="M845 1135 c-34 -33 -35 -102 -2 -133 28 -26 107 -31 127 -7 17 20 4
38 -20 25 -36 -19 -90 -6 -90 22 0 4 30 8 68 10 l67 3 -3 30 c-6 68 -98 100
-147 50z m99 -21 c26 -26 18 -34 -34 -34 -37 0 -50 4 -50 15 0 32 58 45 84 19z"/>
<path d="M1097 1153 c-5 -7 -11 -132 -8 -160 1 -7 8 -13 16 -13 12 0 15 16 15
84 0 75 -9 111 -23 89z"/>
<path d="M1157 1153 c-4 -3 -7 -44 -7 -90 0 -75 2 -84 18 -81 13 2 18 15 20
60 2 46 7 61 25 73 49 34 77 6 77 -76 0 -52 2 -60 18 -57 14 3 17 14 16 72 -1
59 -4 72 -23 88 -26 20 -62 23 -91 8 -13 -7 -21 -7 -25 0 -7 12 -19 13 -28 3z"/>
<path d="M1386 1135 c-36 -33 -37 -95 -1 -130 28 -29 104 -35 125 -10 17 20 4
38 -20 25 -36 -19 -90 -6 -90 22 0 4 30 8 68 10 l67 3 -3 30 c-6 68 -94 98
-146 50z m98 -21 c26 -26 18 -34 -34 -34 -27 0 -50 4 -50 9 0 16 31 41 50 41
10 0 26 -7 34 -16z"/>
</g>
</svg>
