<svg width="162" height="64" viewBox="0 0 162 64" fill="none" xmlns="http://www.w3.org/2000/svg">
<path d="M32 38L9 25L32 12L55 25L32 38ZM32 38V55M32 38L50 28" stroke="black" stroke-width="4" stroke-linecap="round" stroke-linejoin="round"/>
<mask id="path-2-outside-1_29005_15" maskUnits="userSpaceOnUse" x="62" y="18" width="100" height="25" fill="black">
<rect fill="white" x="62" y="18" width="100" height="25"/>
<path d="M63.728 37V20.128H66.992V37H63.728ZM66.128 37V34.096H74.72V37H66.128ZM81.9673 37.24C80.7513 37.24 79.6713 36.984 78.7273 36.472C77.7833 35.944 77.0313 35.224 76.4713 34.312C75.9273 33.4 75.6553 32.36 75.6553 31.192C75.6553 30.04 75.9193 29.016 76.4473 28.12C76.9913 27.208 77.7273 26.488 78.6553 25.96C79.5833 25.416 80.6153 25.144 81.7513 25.144C82.8713 25.144 83.8553 25.4 84.7033 25.912C85.5673 26.408 86.2393 27.096 86.7193 27.976C87.2153 28.84 87.4633 29.824 87.4633 30.928C87.4633 31.136 87.4473 31.352 87.4153 31.576C87.3993 31.784 87.3593 32.024 87.2953 32.296L77.5513 32.32V29.968L85.8313 29.944L84.5593 30.928C84.5273 30.24 84.3993 29.664 84.1753 29.2C83.9673 28.736 83.6553 28.384 83.2393 28.144C82.8393 27.888 82.3433 27.76 81.7513 27.76C81.1273 27.76 80.5833 27.904 80.1193 28.192C79.6553 28.464 79.2953 28.856 79.0393 29.368C78.7993 29.864 78.6793 30.456 78.6793 31.144C78.6793 31.848 78.8073 32.464 79.0633 32.992C79.3353 33.504 79.7193 33.904 80.2153 34.192C80.7113 34.464 81.2873 34.6 81.9433 34.6C82.5353 34.6 83.0713 34.504 83.5513 34.312C84.0313 34.104 84.4473 33.8 84.7993 33.4L86.6473 35.248C86.0873 35.904 85.3993 36.4 84.5833 36.736C83.7833 37.072 82.9113 37.24 81.9673 37.24ZM94.2556 37.24C93.1996 37.24 92.2476 36.976 91.3996 36.448C90.5516 35.92 89.8876 35.2 89.4076 34.288C88.9276 33.376 88.6876 32.352 88.6876 31.216C88.6876 30.064 88.9276 29.032 89.4076 28.12C89.8876 27.208 90.5516 26.488 91.3996 25.96C92.2476 25.432 93.1996 25.168 94.2556 25.168C95.0876 25.168 95.8316 25.336 96.4876 25.672C97.1436 26.008 97.6636 26.48 98.0476 27.088C98.4476 27.68 98.6636 28.352 98.6956 29.104V33.28C98.6636 34.048 98.4476 34.728 98.0476 35.32C97.6636 35.912 97.1436 36.384 96.4876 36.736C95.8316 37.072 95.0876 37.24 94.2556 37.24ZM94.8316 34.336C95.7116 34.336 96.4236 34.048 96.9676 33.472C97.5116 32.88 97.7836 32.12 97.7836 31.192C97.7836 30.584 97.6556 30.048 97.3996 29.584C97.1596 29.104 96.8156 28.736 96.3676 28.48C95.9356 28.208 95.4236 28.072 94.8316 28.072C94.2556 28.072 93.7436 28.208 93.2956 28.48C92.8636 28.736 92.5196 29.104 92.2636 29.584C92.0236 30.048 91.9036 30.584 91.9036 31.192C91.9036 31.816 92.0236 32.368 92.2636 32.848C92.5196 33.312 92.8636 33.68 93.2956 33.952C93.7436 34.208 94.2556 34.336 94.8316 34.336ZM97.6156 37V33.88L98.1196 31.048L97.6156 28.264V25.408H100.736V37H97.6156ZM103.517 37V25.408H106.661V37H103.517ZM106.661 30.592L105.437 29.776C105.581 28.352 105.997 27.232 106.685 26.416C107.373 25.584 108.365 25.168 109.661 25.168C110.221 25.168 110.725 25.264 111.173 25.456C111.621 25.632 112.029 25.928 112.397 26.344L110.429 28.6C110.253 28.408 110.037 28.264 109.781 28.168C109.541 28.072 109.261 28.024 108.941 28.024C108.269 28.024 107.717 28.24 107.285 28.672C106.869 29.088 106.661 29.728 106.661 30.592ZM121.255 37V30.352C121.255 29.664 121.039 29.104 120.607 28.672C120.175 28.24 119.615 28.024 118.927 28.024C118.479 28.024 118.079 28.12 117.727 28.312C117.375 28.504 117.095 28.776 116.887 29.128C116.695 29.48 116.599 29.888 116.599 30.352L115.375 29.728C115.375 28.816 115.567 28.024 115.951 27.352C116.351 26.664 116.895 26.128 117.583 25.744C118.287 25.36 119.079 25.168 119.959 25.168C120.807 25.168 121.567 25.384 122.239 25.816C122.911 26.232 123.439 26.784 123.823 27.472C124.207 28.144 124.398 28.872 124.398 29.656V37H121.255ZM113.455 37V25.408H116.599V37H113.455ZM130.579 37.096L125.731 25.408H129.139L132.355 34.336H131.203L134.539 25.408H137.971L132.811 37.096H130.579ZM127.363 41.848L130.891 34.384L132.811 37.096L130.699 41.848H127.363ZM140.912 37V24.16C140.912 23.232 141.112 22.416 141.512 21.712C141.912 20.992 142.48 20.424 143.216 20.008C143.952 19.592 144.816 19.384 145.808 19.384C146.56 19.384 147.208 19.512 147.752 19.768C148.296 20.024 148.784 20.376 149.216 20.824L147.224 22.84C147.048 22.664 146.856 22.528 146.648 22.432C146.44 22.336 146.176 22.288 145.856 22.288C145.28 22.288 144.832 22.448 144.512 22.768C144.208 23.072 144.056 23.512 144.056 24.088V37H140.912ZM138.224 28.168V25.408H147.488V28.168H138.224ZM152.798 37.096L147.95 25.408H151.358L154.574 34.336H153.422L156.758 25.408H160.19L155.03 37.096H152.798ZM149.582 41.848L153.11 34.384L155.03 37.096L152.918 41.848H149.582Z"/>
</mask>
<path d="M63.728 37V20.128H66.992V37H63.728ZM66.128 37V34.096H74.72V37H66.128ZM81.9673 37.24C80.7513 37.24 79.6713 36.984 78.7273 36.472C77.7833 35.944 77.0313 35.224 76.4713 34.312C75.9273 33.4 75.6553 32.36 75.6553 31.192C75.6553 30.04 75.9193 29.016 76.4473 28.12C76.9913 27.208 77.7273 26.488 78.6553 25.96C79.5833 25.416 80.6153 25.144 81.7513 25.144C82.8713 25.144 83.8553 25.4 84.7033 25.912C85.5673 26.408 86.2393 27.096 86.7193 27.976C87.2153 28.84 87.4633 29.824 87.4633 30.928C87.4633 31.136 87.4473 31.352 87.4153 31.576C87.3993 31.784 87.3593 32.024 87.2953 32.296L77.5513 32.32V29.968L85.8313 29.944L84.5593 30.928C84.5273 30.24 84.3993 29.664 84.1753 29.2C83.9673 28.736 83.6553 28.384 83.2393 28.144C82.8393 27.888 82.3433 27.76 81.7513 27.76C81.1273 27.76 80.5833 27.904 80.1193 28.192C79.6553 28.464 79.2953 28.856 79.0393 29.368C78.7993 29.864 78.6793 30.456 78.6793 31.144C78.6793 31.848 78.8073 32.464 79.0633 32.992C79.3353 33.504 79.7193 33.904 80.2153 34.192C80.7113 34.464 81.2873 34.6 81.9433 34.6C82.5353 34.6 83.0713 34.504 83.5513 34.312C84.0313 34.104 84.4473 33.8 84.7993 33.4L86.6473 35.248C86.0873 35.904 85.3993 36.4 84.5833 36.736C83.7833 37.072 82.9113 37.24 81.9673 37.24ZM94.2556 37.24C93.1996 37.24 92.2476 36.976 91.3996 36.448C90.5516 35.92 89.8876 35.2 89.4076 34.288C88.9276 33.376 88.6876 32.352 88.6876 31.216C88.6876 30.064 88.9276 29.032 89.4076 28.12C89.8876 27.208 90.5516 26.488 91.3996 25.96C92.2476 25.432 93.1996 25.168 94.2556 25.168C95.0876 25.168 95.8316 25.336 96.4876 25.672C97.1436 26.008 97.6636 26.48 98.0476 27.088C98.4476 27.68 98.6636 28.352 98.6956 29.104V33.28C98.6636 34.048 98.4476 34.728 98.0476 35.32C97.6636 35.912 97.1436 36.384 96.4876 36.736C95.8316 37.072 95.0876 37.24 94.2556 37.24ZM94.8316 34.336C95.7116 34.336 96.4236 34.048 96.9676 33.472C97.5116 32.88 97.7836 32.12 97.7836 31.192C97.7836 30.584 97.6556 30.048 97.3996 29.584C97.1596 29.104 96.8156 28.736 96.3676 28.48C95.9356 28.208 95.4236 28.072 94.8316 28.072C94.2556 28.072 93.7436 28.208 93.2956 28.48C92.8636 28.736 92.5196 29.104 92.2636 29.584C92.0236 30.048 91.9036 30.584 91.9036 31.192C91.9036 31.816 92.0236 32.368 92.2636 32.848C92.5196 33.312 92.8636 33.68 93.2956 33.952C93.7436 34.208 94.2556 34.336 94.8316 34.336ZM97.6156 37V33.88L98.1196 31.048L97.6156 28.264V25.408H100.736V37H97.6156ZM103.517 37V25.408H106.661V37H103.517ZM106.661 30.592L105.437 29.776C105.581 28.352 105.997 27.232 106.685 26.416C107.373 25.584 108.365 25.168 109.661 25.168C110.221 25.168 110.725 25.264 111.173 25.456C111.621 25.632 112.029 25.928 112.397 26.344L110.429 28.6C110.253 28.408 110.037 28.264 109.781 28.168C109.541 28.072 109.261 28.024 108.941 28.024C108.269 28.024 107.717 28.24 107.285 28.672C106.869 29.088 106.661 29.728 106.661 30.592ZM121.255 37V30.352C121.255 29.664 121.039 29.104 120.607 28.672C120.175 28.24 119.615 28.024 118.927 28.024C118.479 28.024 118.079 28.12 117.727 28.312C117.375 28.504 117.095 28.776 116.887 29.128C116.695 29.48 116.599 29.888 116.599 30.352L115.375 29.728C115.375 28.816 115.567 28.024 115.951 27.352C116.351 26.664 116.895 26.128 117.583 25.744C118.287 25.36 119.079 25.168 119.959 25.168C120.807 25.168 121.567 25.384 122.239 25.816C122.911 26.232 123.439 26.784 123.823 27.472C124.207 28.144 124.398 28.872 124.398 29.656V37H121.255ZM113.455 37V25.408H116.599V37H113.455ZM130.579 37.096L125.731 25.408H129.139L132.355 34.336H131.203L134.539 25.408H137.971L132.811 37.096H130.579ZM127.363 41.848L130.891 34.384L132.811 37.096L130.699 41.848H127.363ZM140.912 37V24.16C140.912 23.232 141.112 22.416 141.512 21.712C141.912 20.992 142.48 20.424 143.216 20.008C143.952 19.592 144.816 19.384 145.808 19.384C146.56 19.384 147.208 19.512 147.752 19.768C148.296 20.024 148.784 20.376 149.216 20.824L147.224 22.84C147.048 22.664 146.856 22.528 146.648 22.432C146.44 22.336 146.176 22.288 145.856 22.288C145.28 22.288 144.832 22.448 144.512 22.768C144.208 23.072 144.056 23.512 144.056 24.088V37H140.912ZM138.224 28.168V25.408H147.488V28.168H138.224ZM152.798 37.096L147.95 25.408H151.358L154.574 34.336H153.422L156.758 25.408H160.19L155.03 37.096H152.798ZM149.582 41.848L153.11 34.384L155.03 37.096L152.918 41.848H149.582Z" fill="#0E0E0E"/>
<path d="M63.728 37H62.728V38H63.728V37ZM63.728 20.128V19.128H62.728V20.128H63.728ZM66.992 20.128H67.992V19.128H66.992V20.128ZM66.992 37V38H67.992V37H66.992ZM66.128 37H65.128V38H66.128V37ZM66.128 34.096V33.096H65.128V34.096H66.128ZM74.72 34.096H75.72V33.096H74.72V34.096ZM74.72 37V38H75.72V37H74.72ZM63.728 37H64.728V20.128H63.728H62.728V37H63.728ZM63.728 20.128V21.128H66.992V20.128V19.128H63.728V20.128ZM66.992 20.128H65.992V37H66.992H67.992V20.128H66.992ZM66.992 37V36H63.728V37V38H66.992V37ZM66.128 37H67.128V34.096H66.128H65.128V37H66.128ZM66.128 34.096V35.096H74.72V34.096V33.096H66.128V34.096ZM74.72 34.096H73.72V37H74.72H75.72V34.096H74.72ZM74.72 37V36H66.128V37V38H74.72V37ZM78.7273 36.472L78.2391 37.3448L78.2505 37.351L78.7273 36.472ZM76.4713 34.312L75.6124 34.8243L75.6191 34.8353L76.4713 34.312ZM76.4473 28.12L75.5884 27.6077L75.5857 27.6123L76.4473 28.12ZM78.6553 25.96L79.1498 26.8292L79.161 26.8227L78.6553 25.96ZM84.7033 25.912L84.1864 26.7681L84.1958 26.7738L84.2054 26.7793L84.7033 25.912ZM86.7192 27.976L85.8414 28.4549L85.8466 28.4644L85.852 28.4739L86.7192 27.976ZM87.4153 31.576L86.4253 31.4346L86.4207 31.4668L86.4182 31.4993L87.4153 31.576ZM87.2952 32.296L87.2977 33.296L88.0877 33.2941L88.2687 32.525L87.2952 32.296ZM77.5513 32.32H76.5513V33.3225L77.5537 33.32L77.5513 32.32ZM77.5513 29.968L77.5484 28.968L76.5513 28.9709V29.968H77.5513ZM85.8313 29.944L86.4431 30.735L88.7693 28.9355L85.8284 28.944L85.8313 29.944ZM84.5592 30.928L83.5603 30.9745L83.6497 32.8959L85.1711 31.719L84.5592 30.928ZM84.1753 29.2L83.2627 29.6091L83.2685 29.622L83.2747 29.6347L84.1753 29.2ZM83.2393 28.144L82.7002 28.9863L82.7196 28.9987L82.7395 29.0102L83.2393 28.144ZM80.1193 28.192L80.625 29.0547L80.6359 29.0483L80.6466 29.0416L80.1193 28.192ZM79.0392 29.368L78.1447 28.9207L78.1391 28.9324L79.0392 29.368ZM79.0632 32.992L78.1634 33.4283L78.1715 33.4449L78.1801 33.4612L79.0632 32.992ZM80.2153 34.192L79.7131 35.0568L79.7237 35.0629L79.7344 35.0688L80.2153 34.192ZM83.5513 34.312L83.9226 35.2405L83.9358 35.2352L83.9489 35.2296L83.5513 34.312ZM84.7992 33.4L85.5064 32.6929L84.7527 31.9392L84.0485 32.7394L84.7992 33.4ZM86.6473 35.248L87.4078 35.8973L88.0078 35.1944L87.3544 34.5409L86.6473 35.248ZM84.5833 36.736L84.2025 35.8113L84.196 35.814L84.5833 36.736ZM81.9673 37.24V36.24C80.8954 36.24 79.9832 36.0156 79.204 35.593L78.7273 36.472L78.2505 37.351C79.3593 37.9524 80.6071 38.24 81.9673 38.24V37.24ZM78.7273 36.472L79.2154 35.5992C78.419 35.1538 77.793 34.5534 77.3234 33.7887L76.4713 34.312L75.6191 34.8353C76.2695 35.8946 77.1475 36.7342 78.2391 37.3448L78.7273 36.472ZM76.4713 34.312L77.3301 33.7997C76.8875 33.0578 76.6552 32.1982 76.6552 31.192H75.6552H74.6552C74.6552 32.5218 74.967 33.7422 75.6124 34.8243L76.4713 34.312ZM75.6552 31.192H76.6552C76.6552 30.1988 76.881 29.3537 77.3088 28.6277L76.4473 28.12L75.5857 27.6123C74.9575 28.6783 74.6552 29.8812 74.6552 31.192H75.6552ZM76.4473 28.12L77.3061 28.6323C77.761 27.8696 78.3712 27.2722 79.1498 26.8292L78.6553 25.96L78.1607 25.0908C77.0833 25.7038 76.2215 26.5464 75.5884 27.6077L76.4473 28.12ZM78.6553 25.96L79.161 26.8227C79.9269 26.3737 80.7827 26.144 81.7512 26.144V25.144V24.144C80.4478 24.144 79.2396 24.4583 78.1495 25.0973L78.6553 25.96ZM81.7512 25.144V26.144C82.7134 26.144 83.514 26.3621 84.1864 26.7681L84.7033 25.912L85.2201 25.0559C84.1965 24.4379 83.0291 24.144 81.7512 24.144V25.144ZM84.7033 25.912L84.2054 26.7793C84.9082 27.1827 85.4492 27.7359 85.8414 28.4549L86.7192 27.976L87.5971 27.4971C87.0293 26.4561 86.2263 25.6333 85.2011 25.0447L84.7033 25.912ZM86.7192 27.976L85.852 28.4739C86.2519 29.1704 86.4632 29.9793 86.4632 30.928H87.4632H88.4632C88.4632 29.6687 88.1786 28.5096 87.5865 27.4781L86.7192 27.976ZM87.4632 30.928H86.4632C86.4632 31.0848 86.4512 31.2534 86.4253 31.4346L87.4153 31.576L88.4052 31.7174C88.4433 31.4506 88.4632 31.1872 88.4632 30.928H87.4632ZM87.4153 31.576L86.4182 31.4993C86.4072 31.6421 86.3777 31.8294 86.3218 32.067L87.2952 32.296L88.2687 32.525C88.3408 32.2186 88.3913 31.9259 88.4123 31.6527L87.4153 31.576ZM87.2952 32.296L87.2928 31.296L77.5488 31.32L77.5513 32.32L77.5537 33.32L87.2977 33.296L87.2952 32.296ZM77.5513 32.32H78.5513V29.968H77.5513H76.5513V32.32H77.5513ZM77.5513 29.968L77.5541 30.968L85.8341 30.944L85.8313 29.944L85.8284 28.944L77.5484 28.968L77.5513 29.968ZM85.8313 29.944L85.2194 29.153L83.9474 30.137L84.5592 30.928L85.1711 31.719L86.4431 30.735L85.8313 29.944ZM84.5592 30.928L85.5582 30.8815C85.5219 30.1017 85.3746 29.3842 85.0758 28.7653L84.1753 29.2L83.2747 29.6347C83.4239 29.9438 83.5326 30.3783 83.5603 30.9745L84.5592 30.928ZM84.1753 29.2L85.0878 28.7909C84.7991 28.1469 84.3483 27.6293 83.739 27.2778L83.2393 28.144L82.7395 29.0102C82.9622 29.1387 83.1354 29.3251 83.2627 29.6091L84.1753 29.2ZM83.2393 28.144L83.7783 27.3017C83.1819 26.92 82.4873 26.76 81.7512 26.76V27.76V28.76C82.1992 28.76 82.4966 28.856 82.7002 28.9863L83.2393 28.144ZM81.7512 27.76V26.76C80.9681 26.76 80.2358 26.9427 79.5919 27.3424L80.1193 28.192L80.6466 29.0416C80.9307 28.8653 81.2864 28.76 81.7512 28.76V27.76ZM80.1193 28.192L79.6135 27.3293C78.9715 27.7056 78.4816 28.2473 78.1448 28.9208L79.0392 29.368L79.9337 29.8152C80.1089 29.4647 80.339 29.2224 80.625 29.0547L80.1193 28.192ZM79.0392 29.368L78.1391 28.9324C77.8191 29.5937 77.6793 30.3417 77.6793 31.144H78.6793H79.6793C79.6793 30.5703 79.7794 30.1343 79.9394 29.8036L79.0392 29.368ZM78.6793 31.144H77.6793C77.6793 31.9693 77.8296 32.7398 78.1634 33.4283L79.0632 32.992L79.9631 32.5557C79.7849 32.1882 79.6793 31.7267 79.6793 31.144H78.6793ZM79.0632 32.992L78.1801 33.4612C78.5387 34.1361 79.0538 34.674 79.7131 35.0568L80.2153 34.192L80.7174 33.3272C80.3847 33.134 80.1318 32.8719 79.9464 32.5228L79.0632 32.992ZM80.2153 34.192L79.7344 35.0688C80.3998 35.4337 81.1462 35.6 81.9433 35.6V34.6V33.6C81.4283 33.6 81.0227 33.4943 80.6961 33.3152L80.2153 34.192ZM81.9433 34.6V35.6C82.6442 35.6 83.3087 35.4861 83.9226 35.2405L83.5513 34.312L83.1799 33.3835C82.8338 33.5219 82.4263 33.6 81.9433 33.6V34.6ZM83.5513 34.312L83.9489 35.2296C84.5666 34.9619 85.1025 34.5691 85.55 34.0606L84.7992 33.4L84.0485 32.7394C83.792 33.0309 83.4959 33.2461 83.1536 33.3944L83.5513 34.312ZM84.7992 33.4L84.0921 34.1071L85.9401 35.9551L86.6473 35.248L87.3544 34.5409L85.5064 32.6929L84.7992 33.4ZM86.6473 35.248L85.8867 34.5987C85.4321 35.1313 84.8754 35.5343 84.2025 35.8113L84.5833 36.736L84.964 37.6607C85.9231 37.2657 86.7424 36.6768 87.4078 35.8973L86.6473 35.248ZM84.5833 36.736L84.196 35.814C83.529 36.0941 82.7901 36.24 81.9673 36.24V37.24V38.24C83.0324 38.24 84.0375 38.0499 84.9705 37.658L84.5833 36.736ZM91.3996 36.448L90.8711 37.2969L91.3996 36.448ZM89.4076 34.288L90.2925 33.8223L89.4076 34.288ZM89.4076 28.12L90.2925 28.5857L89.4076 28.12ZM91.3996 25.96L91.9282 26.8089H91.9282L91.3996 25.96ZM98.0476 27.088L97.2021 27.622L97.2104 27.6351L97.219 27.6479L98.0476 27.088ZM98.6956 29.104H99.6956V29.0827L99.6947 29.0615L98.6956 29.104ZM98.6956 33.28L99.6948 33.3216L99.6956 33.3008V33.28H98.6956ZM98.0476 35.32L97.219 34.7601L97.2138 34.7679L97.2087 34.7758L98.0476 35.32ZM96.4876 36.736L96.9435 37.626L96.952 37.6217L96.9604 37.6172L96.4876 36.736ZM96.9676 33.472L97.6947 34.1587L97.704 34.1486L96.9676 33.472ZM97.3996 29.584L96.5052 30.0312L96.5143 30.0493L96.524 30.0671L97.3996 29.584ZM96.3676 28.48L95.8348 29.3262L95.8529 29.3376L95.8715 29.3482L96.3676 28.48ZM93.2956 28.48L93.8055 29.3403L93.8146 29.3348L93.2956 28.48ZM92.2636 29.584L91.3812 29.1134L91.3754 29.1246L92.2636 29.584ZM92.2636 32.848L91.3692 33.2952L91.3783 33.3133L91.388 33.3311L92.2636 32.848ZM93.2956 33.952L92.7628 34.7982L92.7809 34.8096L92.7995 34.8202L93.2956 33.952ZM97.6156 37H96.6156V38H97.6156V37ZM97.6156 33.88L96.6311 33.7048L96.6156 33.7917V33.88H97.6156ZM98.1196 31.048L99.1042 31.2232L99.1356 31.0465L99.1036 30.8699L98.1196 31.048ZM97.6156 28.264H96.6156V28.3538L96.6316 28.4421L97.6156 28.264ZM97.6156 25.408V24.408H96.6156V25.408H97.6156ZM100.736 25.408H101.736V24.408H100.736V25.408ZM100.736 37V38H101.736V37H100.736ZM94.2556 37.24V36.24C93.3753 36.24 92.6084 36.0226 91.9282 35.5991L91.3996 36.448L90.8711 37.2969C91.8869 37.9294 93.0239 38.24 94.2556 38.24V37.24ZM91.3996 36.448L91.9282 35.5991C91.2358 35.168 90.6926 34.5824 90.2925 33.8223L89.4076 34.288L88.5227 34.7537C89.0826 35.8176 89.8675 36.672 90.8711 37.2969L91.3996 36.448ZM89.4076 34.288L90.2925 33.8223C89.8956 33.0681 89.6876 32.2066 89.6876 31.216H88.6876H87.6876C87.6876 32.4974 87.9596 33.6839 88.5227 34.7537L89.4076 34.288ZM88.6876 31.216H89.6876C89.6876 30.2069 89.8967 29.3379 90.2925 28.5857L89.4076 28.12L88.5227 27.6543C87.9586 28.7261 87.6876 29.9211 87.6876 31.216H88.6876ZM89.4076 28.12L90.2925 28.5857C90.6926 27.8256 91.2358 27.24 91.9282 26.8089L91.3996 25.96L90.8711 25.1111C89.8675 25.736 89.0826 26.5904 88.5227 27.6543L89.4076 28.12ZM91.3996 25.96L91.9282 26.8089C92.6084 26.3854 93.3753 26.168 94.2556 26.168V25.168V24.168C93.0239 24.168 91.8869 24.4786 90.8711 25.1111L91.3996 25.96ZM94.2556 25.168V26.168C94.9497 26.168 95.5341 26.3072 96.0317 26.562L96.4876 25.672L96.9435 24.782C96.1291 24.3648 95.2255 24.168 94.2556 24.168V25.168ZM96.4876 25.672L96.0317 26.562C96.5325 26.8185 96.9162 27.1693 97.2021 27.622L98.0476 27.088L98.8931 26.554C98.411 25.7907 97.7547 25.1975 96.9435 24.782L96.4876 25.672ZM98.0476 27.088L97.219 27.6479C97.5098 28.0782 97.672 28.5691 97.6965 29.1465L98.6956 29.104L99.6947 29.0615C99.6553 28.1349 99.3855 27.2818 98.8762 26.5281L98.0476 27.088ZM98.6956 29.104H97.6956V33.28H98.6956H99.6956V29.104H98.6956ZM98.6956 33.28L97.6965 33.2384C97.6716 33.8358 97.5074 34.3334 97.219 34.7601L98.0476 35.32L98.8762 35.8799C99.3879 35.1226 99.6557 34.2602 99.6948 33.3216L98.6956 33.28ZM98.0476 35.32L97.2087 34.7758C96.9215 35.2186 96.5308 35.578 96.0148 35.8548L96.4876 36.736L96.9604 37.6172C97.7565 37.19 98.4058 36.6054 98.8866 35.8642L98.0476 35.32ZM96.4876 36.736L96.0317 35.846C95.5341 36.1008 94.9497 36.24 94.2556 36.24V37.24V38.24C95.2255 38.24 96.1291 38.0432 96.9435 37.626L96.4876 36.736ZM94.8316 34.336V35.336C95.9531 35.336 96.9398 34.9579 97.6946 34.1586L96.9676 33.472L96.2406 32.7854C95.9075 33.1381 95.4702 33.336 94.8316 33.336V34.336ZM96.9676 33.472L97.704 34.1486C98.4436 33.3438 98.7836 32.3293 98.7836 31.192H97.7836H96.7836C96.7836 31.9107 96.5797 32.4162 96.2313 32.7954L96.9676 33.472ZM97.7836 31.192H98.7836C98.7836 30.4402 98.6242 29.7334 98.2752 29.1009L97.3996 29.584L96.524 30.0671C96.6871 30.3626 96.7836 30.7278 96.7836 31.192H97.7836ZM97.3996 29.584L98.2941 29.1368C97.9695 28.4877 97.4903 27.9698 96.8638 27.6118L96.3676 28.48L95.8715 29.3482C96.141 29.5022 96.3498 29.7203 96.5052 30.0312L97.3996 29.584ZM96.3676 28.48L96.9004 27.6338C96.2848 27.2461 95.5815 27.072 94.8316 27.072V28.072V29.072C95.2658 29.072 95.5865 29.1699 95.8348 29.3262L96.3676 28.48ZM94.8316 28.072V27.072C94.0913 27.072 93.3963 27.249 92.7766 27.6252L93.2956 28.48L93.8146 29.3348C94.0909 29.167 94.4199 29.072 94.8316 29.072V28.072ZM93.2956 28.48L92.7858 27.6197C92.1832 27.9768 91.716 28.4858 91.3813 29.1134L92.2636 29.584L93.146 30.0546C93.3233 29.7222 93.544 29.4952 93.8054 29.3403L93.2956 28.48ZM92.2636 29.584L91.3754 29.1246C91.0508 29.7522 90.9036 30.4504 90.9036 31.192H91.9036H92.9036C92.9036 30.7176 92.9965 30.3438 93.1518 30.0434L92.2636 29.584ZM91.9036 31.192H90.9036C90.9036 31.946 91.0493 32.6554 91.3692 33.2952L92.2636 32.848L93.1581 32.4008C92.998 32.0806 92.9036 31.686 92.9036 31.192H91.9036ZM92.2636 32.848L91.388 33.3311C91.7225 33.9373 92.1821 34.4326 92.7628 34.7982L93.2956 33.952L93.8284 33.1058C93.5451 32.9274 93.3167 32.6867 93.1392 32.3649L92.2636 32.848ZM93.2956 33.952L92.7995 34.8202C93.4156 35.1723 94.1023 35.336 94.8316 35.336V34.336V33.336C94.409 33.336 94.0717 33.2437 93.7918 33.0838L93.2956 33.952ZM97.6156 37H98.6156V33.88H97.6156H96.6156V37H97.6156ZM97.6156 33.88L98.6002 34.0552L99.1042 31.2232L98.1196 31.048L97.1351 30.8728L96.6311 33.7048L97.6156 33.88ZM98.1196 31.048L99.1036 30.8699L98.5996 28.0859L97.6156 28.264L96.6316 28.4421L97.1356 31.2261L98.1196 31.048ZM97.6156 28.264H98.6156V25.408H97.6156H96.6156V28.264H97.6156ZM97.6156 25.408V26.408H100.736V25.408V24.408H97.6156V25.408ZM100.736 25.408H99.7356V37H100.736H101.736V25.408H100.736ZM100.736 37V36H97.6156V37V38H100.736V37ZM103.517 37H102.517V38H103.517V37ZM103.517 25.408V24.408H102.517V25.408H103.517ZM106.661 25.408H107.661V24.408H106.661V25.408ZM106.661 37V38H107.661V37H106.661ZM106.661 30.592L106.106 31.424L107.661 32.4605V30.592H106.661ZM105.437 29.776L104.442 29.6754L104.382 30.2742L104.882 30.608L105.437 29.776ZM106.685 26.416L107.45 27.0606L107.456 27.0533L106.685 26.416ZM111.173 25.456L110.779 26.3751L110.793 26.3812L110.807 26.3868L111.173 25.456ZM112.397 26.344L113.151 27.0014L113.728 26.3394L113.146 25.6814L112.397 26.344ZM110.429 28.6L109.692 29.2757L110.447 30.1L111.183 29.2574L110.429 28.6ZM109.781 28.168L109.41 29.0965L109.42 29.1005L109.43 29.1043L109.781 28.168ZM103.517 37H104.517V25.408H103.517H102.517V37H103.517ZM103.517 25.408V26.408H106.661V25.408V24.408H103.517V25.408ZM106.661 25.408H105.661V37H106.661H107.661V25.408H106.661ZM106.661 37V36H103.517V37V38H106.661V37ZM106.661 30.592L107.216 29.7599L105.992 28.9439L105.437 29.776L104.882 30.608L106.106 31.424L106.661 30.592ZM105.437 29.776L106.432 29.8766C106.562 28.586 106.929 27.6781 107.45 27.0606L106.685 26.416L105.92 25.7714C105.065 26.7859 104.6 28.118 104.442 29.6754L105.437 29.776ZM106.685 26.416L107.456 27.0533C107.915 26.4974 108.597 26.168 109.661 26.168V25.168V24.168C108.133 24.168 106.831 24.6706 105.914 25.7787L106.685 26.416ZM109.661 25.168V26.168C110.106 26.168 110.473 26.2439 110.779 26.3751L111.173 25.456L111.567 24.5369C110.977 24.2841 110.336 24.168 109.661 24.168V25.168ZM111.173 25.456L110.807 26.3868C111.087 26.4966 111.369 26.6907 111.648 27.0066L112.397 26.344L113.146 25.6814C112.689 25.1653 112.155 24.7674 111.539 24.5252L111.173 25.456ZM112.397 26.344L111.643 25.6866L109.675 27.9426L110.429 28.6L111.183 29.2574L113.151 27.0014L112.397 26.344ZM110.429 28.6L111.166 27.9243C110.878 27.6104 110.528 27.3801 110.132 27.2317L109.781 28.168L109.43 29.1043C109.546 29.1479 109.628 29.2056 109.692 29.2757L110.429 28.6ZM109.781 28.168L110.152 27.2395C109.77 27.0865 109.359 27.024 108.941 27.024V28.024V29.024C109.163 29.024 109.312 29.0575 109.41 29.0965L109.781 28.168ZM108.941 28.024V27.024C108.033 27.024 107.217 27.3257 106.578 27.9649L107.285 28.672L107.992 29.3791C108.217 29.1543 108.505 29.024 108.941 29.024V28.024ZM107.285 28.672L106.578 27.9649C105.902 28.6408 105.661 29.5866 105.661 30.592H106.661H107.661C107.661 29.8694 107.836 29.5352 107.992 29.3791L107.285 28.672ZM121.255 37H120.255V38H121.255V37ZM120.606 28.672L119.899 29.3791H119.899L120.606 28.672ZM116.887 29.128L116.026 28.6193L116.017 28.6341L116.009 28.6491L116.887 29.128ZM116.598 30.352L116.144 31.2429L117.598 31.9843V30.352H116.598ZM115.375 29.728H114.375V30.3406L114.92 30.6189L115.375 29.728ZM115.951 27.352L115.086 26.8494L115.082 26.8559L115.951 27.352ZM117.583 25.744L117.104 24.8661L117.095 24.8708L117.583 25.744ZM122.239 25.816L121.698 26.6572L121.705 26.6618L121.712 26.6663L122.239 25.816ZM123.823 27.472L122.949 27.9594L122.954 27.9681L123.823 27.472ZM124.398 37V38H125.398V37H124.398ZM113.454 37H112.454V38H113.454V37ZM113.454 25.408V24.408H112.454V25.408H113.454ZM116.598 25.408H117.598V24.408H116.598V25.408ZM116.598 37V38H117.598V37H116.598ZM121.255 37H122.255V30.352H121.255H120.255V37H121.255ZM121.255 30.352H122.255C122.255 29.4353 121.957 28.6088 121.314 27.9649L120.606 28.672L119.899 29.3791C120.12 29.5992 120.255 29.8927 120.255 30.352H121.255ZM120.606 28.672L121.314 27.9649C120.67 27.321 119.843 27.024 118.926 27.024V28.024V29.024C119.386 29.024 119.679 29.159 119.899 29.3791L120.606 28.672ZM118.926 28.024V27.024C118.331 27.024 117.763 27.1529 117.248 27.4341L117.727 28.312L118.205 29.1899C118.394 29.0871 118.626 29.024 118.926 29.024V28.024ZM117.727 28.312L117.248 27.4341C116.734 27.7142 116.323 28.1152 116.026 28.6193L116.887 29.128L117.747 29.6367C117.866 29.4368 118.015 29.2938 118.205 29.1899L117.727 28.312ZM116.887 29.128L116.009 28.6491C115.725 29.1697 115.598 29.7472 115.598 30.352H116.598H117.598C117.598 30.0288 117.664 29.7903 117.764 29.6069L116.887 29.128ZM116.598 30.352L117.053 29.4611L115.829 28.8371L115.375 29.728L114.92 30.6189L116.144 31.2429L116.598 30.352ZM115.375 29.728H116.375C116.375 28.9588 116.535 28.3441 116.819 27.8481L115.951 27.352L115.082 26.8559C114.598 27.7039 114.375 28.6732 114.375 29.728H115.375ZM115.951 27.352L116.815 27.8546C117.126 27.3201 117.54 26.9128 118.07 26.6172L117.583 25.744L117.095 24.8708C116.249 25.3432 115.575 26.0079 115.086 26.8494L115.951 27.352ZM117.583 25.744L118.061 26.6219C118.604 26.3256 119.229 26.168 119.958 26.168V25.168V24.168C118.928 24.168 117.969 24.3944 117.104 24.8661L117.583 25.744ZM119.958 25.168V26.168C120.627 26.168 121.197 26.3354 121.698 26.6572L122.239 25.816L122.779 24.9748C121.936 24.4326 120.986 24.168 119.958 24.168V25.168ZM122.239 25.816L121.712 26.6663C122.24 26.993 122.648 27.4203 122.949 27.9594L123.823 27.472L124.696 26.9846C124.229 26.1477 123.581 25.471 122.765 24.9657L122.239 25.816ZM123.823 27.472L122.954 27.9681C123.251 28.487 123.398 29.0437 123.398 29.656H124.398H125.398C125.398 28.7003 125.162 27.801 124.691 26.9759L123.823 27.472ZM124.398 29.656H123.398V37H124.398H125.398V29.656H124.398ZM124.398 37V36H121.255V37V38H124.398V37ZM113.454 37H114.454V25.408H113.454H112.454V37H113.454ZM113.454 25.408V26.408H116.598V25.408V24.408H113.454V25.408ZM116.598 25.408H115.598V37H116.598H117.598V25.408H116.598ZM116.598 37V36H113.454V37V38H116.598V37ZM130.579 37.096L129.655 37.4791L129.911 38.096H130.579V37.096ZM125.731 25.408V24.408H124.234L124.807 25.7911L125.731 25.408ZM129.139 25.408L130.08 25.0691L129.842 24.408H129.139V25.408ZM132.355 34.336V35.336H133.778L133.296 33.9971L132.355 34.336ZM131.203 34.336L130.266 33.986L129.762 35.336H131.203V34.336ZM134.539 25.408V24.408H133.845L133.602 25.058L134.539 25.408ZM137.971 25.408L138.886 25.8119L139.506 24.408H137.971V25.408ZM132.811 37.096V38.096H133.463L133.726 37.4999L132.811 37.096ZM127.363 41.848L126.459 41.4207L125.784 42.848H127.363V41.848ZM130.891 34.384L131.707 33.8062L130.718 32.4094L129.987 33.9567L130.891 34.384ZM132.811 37.096L133.725 37.5021L133.956 36.9824L133.627 36.5182L132.811 37.096ZM130.699 41.848V42.848H131.349L131.613 42.2541L130.699 41.848ZM130.579 37.096L131.503 36.7129L126.655 25.0249L125.731 25.408L124.807 25.7911L129.655 37.4791L130.579 37.096ZM125.731 25.408V26.408H129.139V25.408V24.408H125.731V25.408ZM129.139 25.408L128.198 25.7469L131.414 34.6749L132.355 34.336L133.296 33.9971L130.08 25.0691L129.139 25.408ZM132.355 34.336V33.336H131.203V34.336V35.336H132.355V34.336ZM131.203 34.336L132.14 34.686L135.476 25.758L134.539 25.408L133.602 25.058L130.266 33.986L131.203 34.336ZM134.539 25.408V26.408H137.971V25.408V24.408H134.539V25.408ZM137.971 25.408L137.056 25.0041L131.896 36.6921L132.811 37.096L133.726 37.4999L138.886 25.8119L137.971 25.408ZM132.811 37.096V36.096H130.579V37.096V38.096H132.811V37.096ZM127.363 41.848L128.267 42.2753L131.795 34.8113L130.891 34.384L129.987 33.9567L126.459 41.4207L127.363 41.848ZM130.891 34.384L130.075 34.9618L131.995 37.6738L132.811 37.096L133.627 36.5182L131.707 33.8062L130.891 34.384ZM132.811 37.096L131.897 36.6899L129.785 41.4419L130.699 41.848L131.613 42.2541L133.725 37.5021L132.811 37.096ZM130.699 41.848V40.848H127.363V41.848V42.848H130.699V41.848ZM140.912 37H139.912V38H140.912V37ZM141.512 21.712L142.382 22.206L142.387 22.1976L141.512 21.712ZM143.216 20.008L143.708 20.8786V20.8786L143.216 20.008ZM147.752 19.768L148.178 18.8632V18.8632L147.752 19.768ZM149.216 20.824L149.928 21.5269L150.614 20.8325L149.936 20.1299L149.216 20.824ZM147.224 22.84L146.517 23.5471L147.229 24.2585L147.936 23.5429L147.224 22.84ZM146.648 22.432L147.067 21.524V21.524L146.648 22.432ZM144.512 22.768L143.805 22.0609V22.0609L144.512 22.768ZM144.056 37V38H145.056V37H144.056ZM138.224 28.168H137.224V29.168H138.224V28.168ZM138.224 25.408V24.408H137.224V25.408H138.224ZM147.488 25.408H148.488V24.408H147.488V25.408ZM147.488 28.168V29.168H148.488V28.168H147.488ZM140.912 37H141.912V24.16H140.912H139.912V37H140.912ZM140.912 24.16H141.912C141.912 23.3795 142.079 22.7386 142.382 22.206L141.512 21.712L140.643 21.218C140.146 22.0934 139.912 23.0845 139.912 24.16H140.912ZM141.512 21.712L142.387 22.1976C142.695 21.6431 143.128 21.2064 143.708 20.8786L143.216 20.008L142.724 19.1374C141.832 19.6416 141.13 20.3409 140.638 21.2264L141.512 21.712ZM143.216 20.008L143.708 20.8786C144.27 20.5611 144.959 20.384 145.808 20.384V19.384V18.384C144.674 18.384 143.635 18.6229 142.724 19.1374L143.216 20.008ZM145.808 19.384V20.384C146.449 20.384 146.945 20.4932 147.327 20.6728L147.752 19.768L148.178 18.8632C147.472 18.5308 146.672 18.384 145.808 18.384V19.384ZM147.752 19.768L147.327 20.6728C147.757 20.8752 148.146 21.1545 148.497 21.5181L149.216 20.824L149.936 20.1299C149.423 19.5975 148.836 19.1728 148.178 18.8632L147.752 19.768ZM149.216 20.824L148.505 20.1211L146.513 22.1371L147.224 22.84L147.936 23.5429L149.928 21.5269L149.216 20.824ZM147.224 22.84L147.931 22.1329C147.679 21.8807 147.391 21.6736 147.067 21.524L146.648 22.432L146.229 23.34C146.321 23.3824 146.417 23.4473 146.517 23.5471L147.224 22.84ZM146.648 22.432L147.067 21.524C146.687 21.3483 146.267 21.288 145.856 21.288V22.288V23.288C146.085 23.288 146.194 23.3237 146.229 23.34L146.648 22.432ZM145.856 22.288V21.288C145.091 21.288 144.36 21.5057 143.805 22.0609L144.512 22.768L145.219 23.4751C145.304 23.3903 145.47 23.288 145.856 23.288V22.288ZM144.512 22.768L143.805 22.0609C143.257 22.6093 143.056 23.3397 143.056 24.088H144.056H145.056C145.056 23.6843 145.16 23.5347 145.219 23.4751L144.512 22.768ZM144.056 24.088H143.056V37H144.056H145.056V24.088H144.056ZM144.056 37V36H140.912V37V38H144.056V37ZM138.224 28.168H139.224V25.408H138.224H137.224V28.168H138.224ZM138.224 25.408V26.408H147.488V25.408V24.408H138.224V25.408ZM147.488 25.408H146.488V28.168H147.488H148.488V25.408H147.488ZM147.488 28.168V27.168H138.224V28.168V29.168H147.488V28.168ZM152.798 37.096L151.874 37.4791L152.13 38.096H152.798V37.096ZM147.95 25.408V24.408H146.452L147.026 25.7911L147.95 25.408ZM151.358 25.408L152.299 25.0691L152.06 24.408H151.358V25.408ZM154.574 34.336V35.336H155.997L155.515 33.9971L154.574 34.336ZM153.422 34.336L152.485 33.986L151.981 35.336H153.422V34.336ZM156.758 25.408V24.408H156.064L155.821 25.058L156.758 25.408ZM160.19 25.408L161.105 25.8119L161.724 24.408H160.19V25.408ZM155.03 37.096V38.096H155.681L155.945 37.4999L155.03 37.096ZM149.582 41.848L148.678 41.4207L148.003 42.848H149.582V41.848ZM153.11 34.384L153.926 33.8062L152.937 32.4094L152.206 33.9567L153.11 34.384ZM155.03 37.096L155.944 37.5021L156.175 36.9824L155.846 36.5182L155.03 37.096ZM152.918 41.848V42.848H153.568L153.832 42.2541L152.918 41.848ZM152.798 37.096L153.722 36.7129L148.874 25.0249L147.95 25.408L147.026 25.7911L151.874 37.4791L152.798 37.096ZM147.95 25.408V26.408H151.358V25.408V24.408H147.95V25.408ZM151.358 25.408L150.417 25.7469L153.633 34.6749L154.574 34.336L155.515 33.9971L152.299 25.0691L151.358 25.408ZM154.574 34.336V33.336H153.422V34.336V35.336H154.574V34.336ZM153.422 34.336L154.359 34.686L157.695 25.758L156.758 25.408L155.821 25.058L152.485 33.986L153.422 34.336ZM156.758 25.408V26.408H160.19V25.408V24.408H156.758V25.408ZM160.19 25.408L159.275 25.0041L154.115 36.6921L155.03 37.096L155.945 37.4999L161.105 25.8119L160.19 25.408ZM155.03 37.096V36.096H152.798V37.096V38.096H155.03V37.096ZM149.582 41.848L150.486 42.2753L154.014 34.8113L153.11 34.384L152.206 33.9567L148.678 41.4207L149.582 41.848ZM153.11 34.384L152.294 34.9618L154.214 37.6738L155.03 37.096L155.846 36.5182L153.926 33.8062L153.11 34.384ZM155.03 37.096L154.116 36.6899L152.004 41.4419L152.918 41.848L153.832 42.2541L155.944 37.5021L155.03 37.096ZM152.918 41.848V40.848H149.582V41.848V42.848H152.918V41.848Z" fill="black" fill-opacity="0.06" mask="url(#path-2-outside-1_29005_15)"/>
</svg>
