<?xml version="1.0" standalone="no"?>
<!DOCTYPE svg PUBLIC "-//W3C//DTD SVG 20010904//EN"
 "http://www.w3.org/TR/2001/REC-SVG-20010904/DTD/svg10.dtd">
<svg version="1.0" xmlns="http://www.w3.org/2000/svg"
 width="275.000000pt" height="360.000000pt" viewBox="0 0 275.000000 360.000000"
 preserveAspectRatio="xMidYMid meet">

<g transform="translate(0.000000,360.000000) scale(0.100000,-0.100000)"
fill="#000000" stroke="none">
<path d="M1211 2473 c-14 -3 -50 -30 -80 -61 -115 -117 -131 -273 -45 -433 93
-170 316 -163 395 13 21 46 24 68 24 168 0 101 -3 120 -23 158 -65 123 -159
176 -271 155z"/>
<path d="M1764 2451 c-148 -90 -199 -351 -98 -504 72 -109 223 -125 321 -34
149 137 143 421 -11 525 -42 28 -56 32 -115 32 -47 0 -75 -5 -97 -19z"/>
<path d="M735 2006 c-127 -47 -185 -250 -112 -398 34 -68 96 -133 144 -149 94
-31 212 11 252 90 29 56 43 157 31 220 -32 170 -184 285 -315 237z"/>
<path d="M2260 2007 c-46 -14 -130 -99 -159 -160 -31 -65 -38 -157 -17 -230
54 -186 267 -227 387 -75 73 93 92 238 43 336 -41 83 -128 144 -199 141 -11
-1 -36 -6 -55 -12z"/>
<path d="M1457 1741 c-113 -37 -185 -99 -277 -236 -50 -74 -87 -116 -144 -163
-121 -99 -166 -188 -166 -328 0 -133 74 -234 207 -284 48 -18 72 -21 143 -17
71 4 101 11 183 46 139 60 175 62 273 18 104 -47 186 -67 271 -67 191 0 299
102 311 292 9 146 -33 231 -169 343 -59 49 -96 91 -148 168 -37 56 -87 119
-111 141 -101 91 -253 127 -373 87z"/>
</g>
</svg>
